<svg width="1440" height="900" viewBox="0 0 1440 900" fill="none" xmlns="http://www.w3.org/2000/svg">
<path d="M500.464 96.0653H387.533C382.269 96.0653 378 91.7973 378 86.5333C378 81.268 382.269 77 387.533 77H500.464C505.728 77 509.996 81.268 509.996 86.5333C509.996 91.7973 505.728 96.0653 500.464 96.0653Z" fill="#FFEC41"/>
<path d="M628.299 676.68C594.043 695.164 554.838 705.654 513.182 705.654C379.102 705.654 270.407 596.962 270.407 462.881C270.407 441.604 273.146 420.966 278.286 401.301" stroke="url(#paint0_linear)" stroke-width="2.66667" stroke-miterlimit="10" stroke-linecap="round" stroke-linejoin="round"/>
<path d="M346.629 286.247C390.101 245.242 448.706 220.107 513.182 220.107C647.263 220.107 755.957 328.801 755.957 462.881C755.957 489.639 751.627 515.386 743.631 539.459" stroke="url(#paint1_linear)" stroke-width="2.66667" stroke-miterlimit="10" stroke-linecap="round" stroke-linejoin="round"/>
<path d="M715.786 403.659C721.269 422.449 724.209 442.322 724.209 462.881C724.209 579.429 629.729 673.909 513.182 673.909C468.485 673.909 427.034 660.013 392.913 636.305" stroke="url(#paint2_linear)" stroke-width="2.66667" stroke-miterlimit="10" stroke-linecap="round" stroke-linejoin="round"/>
<path d="M302.155 462.881C302.155 393.445 335.691 331.841 387.449 293.383C422.567 267.291 466.072 251.853 513.183 251.853C580.54 251.853 640.525 283.411 679.164 332.549" stroke="url(#paint3_linear)" stroke-width="2.66667" stroke-miterlimit="10" stroke-linecap="round" stroke-linejoin="round"/>
<path d="M926 282.707C926 299.664 939.745 313.411 956.704 313.411C973.661 313.411 987.408 299.664 987.408 282.707C987.408 265.748 973.661 252 956.704 252C939.745 252 926 265.748 926 282.707V282.707ZM933.62 282.707C933.62 269.956 943.955 259.62 956.704 259.62C969.453 259.62 979.788 269.956 979.788 282.707C979.788 295.455 969.453 305.789 956.704 305.789C943.955 305.789 933.62 295.455 933.62 282.707Z" fill="url(#paint4_linear)"/>
<path d="M-32 36.5024C-32 67.1529 -7.60183 92 22.5 92C52.5995 92 77 67.1529 77 36.5024C77 5.84957 52.5995 -19 22.5 -19C-7.60183 -19 -32 5.84957 -32 36.5024V36.5024ZM-18.4743 36.5024C-18.4743 13.4555 -0.130218 -5.22682 22.5 -5.22682C45.1302 -5.22682 63.4743 13.4555 63.4743 36.5024C63.4743 59.5445 45.1302 78.2244 22.5 78.2244C-0.130218 78.2244 -18.4743 59.5445 -18.4743 36.5024Z" fill="url(#paint5_linear)"/>
<path d="M715.655 559.821C715.655 572.165 725.66 582.171 738.005 582.171C750.349 582.171 760.356 572.165 760.356 559.821C760.356 547.477 750.349 537.47 738.005 537.47C725.66 537.47 715.655 547.477 715.655 559.821ZM721.203 559.821C721.203 550.541 728.724 543.018 738.005 543.018C747.285 543.018 754.808 550.541 754.808 559.821C754.808 569.101 747.285 576.623 738.005 576.623C728.724 576.623 721.203 569.101 721.203 559.821Z" fill="url(#paint6_linear)"/>
<path d="M446.37 861.362C420.061 861.362 398.727 840.161 398.727 814C398.727 787.843 420.061 766.641 446.37 766.641C472.682 766.641 494.016 787.843 494.016 814C494.016 840.161 472.682 861.362 446.37 861.362ZM446.37 751C411.37 751 383 779.21 383 814C383 848.794 411.37 877 446.37 877C481.373 877 509.743 848.794 509.743 814C509.743 779.21 481.373 751 446.37 751Z" fill="#942BE5"/>
<path d="M1001.33 177.667C1001.33 185.767 994.765 192.333 986.667 192.333C978.567 192.333 972 185.767 972 177.667C972 169.567 978.567 163 986.667 163C994.765 163 1001.33 169.567 1001.33 177.667Z" fill="#942BE5"/>
<path d="M1090.37 781.584C1102.45 781.486 1112.33 791.125 1112.43 803.113C1112.53 815.099 1102.81 824.897 1090.72 824.995C1078.63 825.093 1068.75 815.453 1068.65 803.467C1068.55 791.479 1078.28 781.681 1090.37 781.584Z" fill="#942BE5"/>
<path d="M1000.5 609.958C1065.94 609.429 1119.42 661.605 1119.94 726.496C1120.47 791.387 1067.84 844.421 1002.4 844.95C936.952 845.479 883.474 793.303 882.95 728.412C882.425 663.521 935.053 610.487 1000.5 609.958Z" stroke="#942BE5" stroke-width="1.33333" stroke-miterlimit="10"/>
<path d="M1121.11 246.258C1121.11 261.541 1108.72 273.93 1093.44 273.93C1078.16 273.93 1065.77 261.541 1065.77 246.258C1065.77 230.976 1078.16 218.586 1093.44 218.586C1108.72 218.586 1121.11 230.976 1121.11 246.258Z" fill="#FFEC41"/>
<path d="M1147.68 1.74061L1146 0.0552368H1149.43H1152.86L1151.18 1.74061C1150.25 2.66756 1149.47 3.42598 1149.43 3.42598C1149.39 3.42598 1148.61 2.66756 1147.68 1.74061Z" fill="#942BE5"/>
<path d="M1160.9 13.3758C1160.17 12.8128 1159.33 12.1453 1159.03 11.8925L1158.48 11.4327L1164.16 5.74397L1169.84 0.0552368H1173.34H1176.83L1169.65 7.23367C1165.71 11.1818 1162.42 14.4092 1162.35 14.4057C1162.28 14.4022 1161.63 13.9387 1160.9 13.3758V13.3758Z" fill="#942BE5"/>
<path d="M1174.73 22.572L1172.62 21.3701L1183.28 10.7127L1193.94 0.0552368H1197.37H1200.8L1188.94 11.9153C1182.42 18.4383 1177.03 23.775 1176.96 23.7746C1176.89 23.7742 1175.89 23.2331 1174.73 22.572V22.572Z" fill="#942BE5"/>
<path d="M1191.02 30.4535C1189.76 29.9442 1188.69 29.495 1188.65 29.4552C1188.61 29.4155 1195.18 22.7842 1203.24 14.7191L1217.91 0.0552368H1221.34H1224.77L1209.1 15.7229C1200.49 24.3402 1193.41 31.3881 1193.37 31.385C1193.34 31.3819 1192.28 30.9627 1191.02 30.4535V30.4535Z" fill="#942BE5"/>
<path d="M1209.63 36.2199C1208.51 35.9542 1207.37 35.6773 1207.08 35.6046C1206.58 35.4757 1207 35.0317 1224.29 17.7402L1242.03 0.00805664H1245.38H1248.73L1230.37 18.3696C1220.28 28.4685 1211.93 36.7249 1211.84 36.7172C1211.74 36.7095 1210.75 36.4857 1209.63 36.2199Z" fill="#942BE5"/>
<path d="M1230.38 39.1542C1228.73 39.0695 1227.34 38.9631 1227.29 38.9177C1227.25 38.8724 1235.95 30.0973 1246.63 19.4176L1266.05 0L1269.35 0.0481812L1272.66 0.0963624L1253.02 19.7023L1233.38 39.3081L1230.38 39.1542Z" fill="#942BE5"/>
<path d="M1270.62 19.3627L1289.91 0.0611572H1293.34H1296.78L1278 18.841L1259.22 37.6208L1258.4 37.7626C1257.03 38.0021 1253.39 38.4927 1252.33 38.5808L1251.33 38.6642L1270.62 19.3627Z" fill="#942BE5"/>
<path d="M1298.26 15.6393L1313.8 0.102539H1317.24H1320.68L1307.79 13.003C1298.76 22.0497 1294.67 26.0275 1294.1 26.3185C1291.87 27.4678 1283.27 31.176 1282.83 31.176C1282.77 31.176 1289.72 24.1845 1298.26 15.6393Z" fill="#942BE5"/>
<path d="M1276.13 41.8133C1276.04 41.5463 1275.62 40.4608 1275.22 39.4012L1274.48 37.4745L1293.17 18.7885L1311.85 0.102539H1312.74H1313.62L1297.91 15.8158C1289.27 24.4581 1282.26 31.5291 1282.33 31.5291C1282.53 31.5291 1288.59 29.082 1289.38 28.6816C1289.74 28.4999 1290.14 28.3511 1290.26 28.3511C1290.39 28.3511 1287.35 31.4894 1283.52 35.325C1279.68 39.1606 1276.49 42.2989 1276.43 42.2989C1276.37 42.2989 1276.23 42.0804 1276.13 41.8133V41.8133Z" fill="#942BE5"/>
<path d="M1269.55 20.1325C1269.53 20.0751 1269.46 19.7122 1269.38 19.326L1269.24 18.6238L1278.55 9.31674L1287.85 0.00964355L1288.81 0.0215672L1289.77 0.0334908L1279.67 10.1351C1270.79 19.0131 1269.57 20.2241 1269.55 20.1325V20.1325Z" fill="#942BE5"/>
<path d="M1283.89 57.716C1283.65 57.3378 1283.11 56.3748 1282.68 55.576L1281.9 54.1236L1308.92 27.1027L1335.94 0.081665L1339.24 0.129846L1342.55 0.178028L1313.44 29.2908L1284.32 58.4036L1283.89 57.716Z" fill="#FF0D76"/>
<path d="M1292.52 70.772L1291.13 68.9018L1325.53 34.4957L1359.94 0.0897217H1363.29H1366.65L1330.37 36.3715C1310.41 56.3265 1294.04 72.6508 1294 72.6477C1293.95 72.6446 1293.28 71.8006 1292.52 70.772V70.772Z" fill="#FF0D76"/>
<path d="M1303.71 83.6879L1302.03 82.0072L1343 41.0444L1383.96 0.081665L1387.27 0.129846L1390.57 0.178028L1347.98 42.7733L1305.38 85.3685L1303.71 83.6879Z" fill="#FF0D76"/>
<path d="M1316.42 94.9642C1315.5 94.2379 1314.72 93.5816 1314.69 93.5056C1314.66 93.4297 1333.89 74.1157 1357.42 50.5856L1400.19 7.80359L1400.24 11.137L1400.29 14.4704L1359.37 55.3909C1336.86 77.8972 1318.37 96.3054 1318.27 96.298C1318.18 96.2906 1317.34 95.6904 1316.42 94.9642V94.9642Z" fill="#FF0D76"/>
<path d="M1330.69 104.449L1328.81 103.356L1380.48 51.6789L1432.16 0.00219727H1435.34H1438.51L1385.72 52.7917C1356.69 81.826 1332.86 105.572 1332.76 105.561C1332.66 105.551 1331.73 105.05 1330.69 104.449V104.449Z" fill="#FF0D76"/>
<path d="M1346.63 112.174L1344.79 111.379L1393.33 62.8415L1441.87 14.304V17.4819V20.6599L1395.7 66.8282C1370.31 92.2208 1349.29 112.99 1349 112.982C1348.71 112.974 1347.64 112.611 1346.63 112.174Z" fill="#FF0D76"/>
<path d="M1365.15 117.999L1362.76 117.41L1402.31 77.8629L1441.87 38.3155V41.4935V44.6715L1404.88 81.6589C1384.54 102.002 1367.81 118.633 1367.72 118.617C1367.62 118.602 1366.46 118.324 1365.15 117.999V117.999Z" fill="#FF0D76"/>
<path d="M1384.23 120.825C1383.74 120.633 1389.77 114.423 1412.74 91.4541L1441.87 62.3272V65.5053V68.6833L1415.65 94.9006L1389.43 121.118L1387.14 121.093C1385.87 121.08 1384.57 120.959 1384.23 120.825V120.825Z" fill="#FF0D76"/>
<path d="M1424.74 103.46L1441.69 86.5073L1441.8 89.5836L1441.9 92.6599L1428.43 106.135L1414.96 119.609L1412.08 120.011C1410.5 120.232 1408.89 120.412 1408.5 120.412C1408.02 120.412 1413.22 114.983 1424.74 103.46Z" fill="#FF0D76"/>
<path d="M0.305176 818.085V815.167L31.2327 784.243L62.1602 753.318L64.4702 753.783C65.7407 754.038 66.7513 754.472 66.7159 754.747C66.6805 755.021 51.7236 770.041 33.4784 788.124L0.305176 821.002V818.085Z" fill="#942BE5"/>
<path d="M0 794.522V791.035L20.0179 771.018L40.0358 751L43.4996 751.023L46.9635 751.046L23.4817 774.528L0 798.009V794.522Z" fill="#942BE5"/>
<path d="M0.180298 770.394V767.215L7.33072 760.078L14.4811 752.942L17.9664 752.385C19.8833 752.079 21.5059 751.883 21.5722 751.949C21.6384 752.015 16.8523 756.907 10.9364 762.821L0.180298 773.573V770.394Z" fill="#942BE5"/>
<path d="M0.180298 866.268V862.914L48.8046 814.289L97.429 765.664L99.4755 766.789C100.601 767.408 101.522 767.997 101.522 768.098C101.522 768.199 78.7202 791.083 50.8512 818.951L0.180298 869.621V866.268Z" fill="#942BE5"/>
<path d="M0.180298 842.342V839.074L40.4686 798.661L80.7568 758.249L83.087 759.126C84.3686 759.608 85.4591 760.045 85.5103 760.096C85.5615 760.147 66.3832 779.409 42.8918 802.899L0.180298 845.61V842.342Z" fill="#942BE5"/>
<path d="M0.180298 890.231V887.005L56.1936 830.932L112.207 774.859L114.129 776.31L116.051 777.762L58.2045 835.609C26.3887 867.426 0.317753 893.457 0.268978 893.457C0.220204 893.457 0.180298 892.005 0.180298 890.231H0.180298Z" fill="#942BE5"/>
<path d="M0.180298 911.435C0.180298 911.224 28.3362 882.858 62.7489 848.398L125.318 785.745L127.021 787.422L128.724 789.1L67.3658 850.459L6.00733 911.819H3.09381C1.23282 911.819 0.180298 911.68 0.180298 911.435V911.435Z" fill="#942BE5"/>
<path d="M79.9826 855.145C111.153 823.974 136.735 798.478 136.832 798.486C136.93 798.494 137.629 799.305 138.387 800.286L139.764 802.072L84.8914 856.945L30.0188 911.819H26.6642H23.3097L79.9826 855.145Z" fill="#942BE5"/>
<path d="M142.529 893.682C152.433 883.769 160.218 875.771 159.83 875.908C159.441 876.045 157.79 876.767 156.161 877.512C154.532 878.257 153.024 878.866 152.81 878.866C152.597 878.866 155.042 876.242 158.245 873.034L164.067 867.201L164.311 868.532C164.446 869.263 164.565 870.578 164.576 871.452L164.597 873.043L145.263 892.374C132.655 904.98 125.684 911.705 125.225 911.705C124.748 911.705 130.326 905.896 142.529 893.682H142.529Z" fill="#942BE5"/>
<path d="M128.124 879.156C146.031 861.243 160.75 846.66 160.832 846.748C160.914 846.837 161.221 847.976 161.515 849.28L162.049 851.649L132.057 881.589L102.065 911.529L98.8143 911.627L95.5641 911.725L128.124 879.156Z" fill="#942BE5"/>
<path d="M113.139 870.127C143.476 839.795 154.806 828.678 155.025 829.026C155.19 829.289 155.62 830.37 155.979 831.428L156.633 833.351L117.271 872.509L77.9087 911.667L74.7309 911.686L71.5531 911.705L113.139 870.127Z" fill="#942BE5"/>
<path d="M97.1447 862.102L146.747 812.499L147.899 814.521C148.533 815.633 149.053 816.644 149.055 816.767C149.057 816.89 127.677 838.302 101.542 864.348L54.0241 911.705H50.7832H47.5424L97.1447 862.102Z" fill="#942BE5"/>
<path d="M132.189 897.066L146.842 882.372L152.599 879.548C155.765 877.994 158.453 876.821 158.571 876.939C158.69 877.058 151.014 884.942 141.515 894.461L124.243 911.767L120.89 911.764L117.537 911.761L132.189 897.066Z" fill="#FF0578"/>
<path d="M162.895 890.411C186.608 866.696 184.203 868.689 189.744 868.16L192.04 867.941L169.97 889.849L147.901 911.756L144.724 911.758L141.547 911.76L162.895 890.411Z" fill="#FF0578"/>
<path d="M187.979 889.339L210.399 866.916H213.313C214.916 866.916 216.227 867.036 216.227 867.182C216.227 867.328 206.256 877.418 194.069 889.604L171.91 911.761H168.734H165.559L187.979 889.339Z" fill="#FF0578"/>
<path d="M210.873 890.455L232.177 869.15L234.827 869.677L237.478 870.204L216.702 890.983L195.926 911.761H192.748H189.57L210.873 890.455Z" fill="#FF0578"/>
<path d="M232.291 893.049C247.695 877.643 251.126 874.377 251.711 874.562C252.101 874.686 253.128 875.089 253.991 875.459L255.562 876.132L237.75 893.946L219.938 911.761H216.76H213.582L232.291 893.049Z" fill="#FF0578"/>
<path d="M252.619 896.733L267.646 881.706L269.664 882.864L271.681 884.023L257.815 897.892L243.95 911.761H240.771H237.591L252.619 896.733Z" fill="#FF0578"/>
<path d="M271.776 901.367C277.406 895.735 282.136 891.127 282.288 891.127C282.44 891.127 283.357 891.719 284.326 892.443L286.089 893.758L277.169 902.683L268.25 911.607H264.895H261.54L271.776 901.367Z" fill="#FF0578"/>
<path d="M1234 573C1234 584.046 1242.51 593 1253 593C1263.49 593 1272 584.046 1272 573C1272 561.954 1263.49 553 1253 553C1242.51 553 1234 561.954 1234 573Z" fill="url(#paint7_linear)"/>
<defs>
<linearGradient id="paint0_linear" x1="269.075" y1="133.215" x2="629.633" y2="133.215" gradientUnits="userSpaceOnUse">
<stop stop-color="#FF7F62"/>
<stop offset="0.811142" stop-color="#FF0079"/>
<stop offset="1" stop-color="#FF0079"/>
</linearGradient>
<linearGradient id="paint1_linear" x1="63.6241" y1="-83.5229" x2="475.619" y2="-83.5229" gradientUnits="userSpaceOnUse">
<stop stop-color="#FFEC41"/>
<stop offset="0.811142" stop-color="#FF0079"/>
<stop offset="1" stop-color="#FF0079"/>
</linearGradient>
<linearGradient id="paint2_linear" x1="622.998" y1="-55.7975" x2="692.341" y2="-241.729" gradientUnits="userSpaceOnUse">
<stop stop-color="#FFEC41"/>
<stop offset="0.811142" stop-color="#FF0079"/>
<stop offset="1" stop-color="#FF0079"/>
</linearGradient>
<linearGradient id="paint3_linear" x1="114.374" y1="209.623" x2="166.663" y2="69.4199" gradientUnits="userSpaceOnUse">
<stop stop-color="#FFEC41"/>
<stop offset="0.811142" stop-color="#FF0079"/>
<stop offset="1" stop-color="#FF0079"/>
</linearGradient>
<linearGradient id="paint4_linear" x1="931.323" y1="160.175" x2="970.038" y2="347.075" gradientUnits="userSpaceOnUse">
<stop stop-color="#FFEC41"/>
<stop offset="0.811142" stop-color="#FF0079"/>
<stop offset="1" stop-color="#FF0079"/>
</linearGradient>
<linearGradient id="paint5_linear" x1="-22.5515" y1="-184.974" x2="48.5987" y2="152.335" gradientUnits="userSpaceOnUse">
<stop stop-color="#FFEC41"/>
<stop offset="0.811142" stop-color="#FF0079"/>
<stop offset="1" stop-color="#FF0079"/>
</linearGradient>
<linearGradient id="paint6_linear" x1="719.53" y1="470.628" x2="747.711" y2="606.676" gradientUnits="userSpaceOnUse">
<stop stop-color="#FFEC41"/>
<stop offset="0.811142" stop-color="#FF0079"/>
<stop offset="1" stop-color="#FF0079"/>
</linearGradient>
<linearGradient id="paint7_linear" x1="1244.16" y1="548.058" x2="1262.92" y2="595.833" gradientUnits="userSpaceOnUse">
<stop stop-color="#8A2A8A"/>
<stop offset="1.1e-07" stop-color="#8A2A8A"/>
<stop offset="0.349644" stop-color="#8A2A8A"/>
<stop offset="1" stop-color="#30297B"/>
</linearGradient>
</defs>
</svg>
